<?xml version="1.0" encoding="UTF-8" standalone="no" ?>
<!DOCTYPE svg PUBLIC "-//W3C//DTD SVG 1.1//EN" "http://www.w3.org/Graphics/SVG/1.1/DTD/svg11.dtd">
<svg xmlns="http://www.w3.org/2000/svg" xmlns:xlink="http://www.w3.org/1999/xlink" version="1.1" width="169.171875" height="80.43199999999999" xml:space="preserve">
<desc>Created with Fabric.js 1.6.0-rc.1</desc>
<defs></defs>
  <g transform="translate(104.09 44.72)">
   <text font-family="Arial" font-size="40" font-style="italic" font-weight="bold" style="stroke: none; stroke-width: 1; stroke-dasharray: none; stroke-linecap: butt; stroke-linejoin: miter; stroke-miterlimit: 10; fill: #22a2b3; fill-rule: nonzero; opacity: 1;" ><tspan x="-55.59" y="8.98" style="stroke: none; stroke-width: 0; stroke-dasharray: none; stroke-linecap: butt; stroke-linejoin: miter; stroke-miterlimit: 4; fill: #22a2b3; fill-rule: ; opacity: 1;">t</tspan><tspan x="-44.47" y="8.98" style="stroke: none; stroke-width: 0; stroke-dasharray: none; stroke-linecap: butt; stroke-linejoin: miter; stroke-miterlimit: 4; fill: #22a2b3; fill-rule: ; opacity: 1;">o</tspan><tspan x="-22.23" y="8.98" style="stroke: none; stroke-width: 0; stroke-dasharray: none; stroke-linecap: butt; stroke-linejoin: miter; stroke-miterlimit: 4; fill: #22a2b3; fill-rule: ; opacity: 1;">u</tspan><tspan x="0.02" y="8.98" style="stroke: none; stroke-width: 0; stroke-dasharray: none; stroke-linecap: butt; stroke-linejoin: miter; stroke-miterlimit: 4; fill: #22a2b3; fill-rule: ; opacity: 1;">r</tspan><tspan x="13.34" y="8.98" style="stroke: none; stroke-width: 0; stroke-dasharray: none; stroke-linecap: butt; stroke-linejoin: miter; stroke-miterlimit: 4; fill: #22a2b3; fill-rule: ; opacity: 1;">g</tspan><tspan x="35.59" y="8.98" style="stroke: none; stroke-width: 0; stroke-dasharray: none; stroke-linecap: butt; stroke-linejoin: miter; stroke-miterlimit: 4; fill: #22a2b3; fill-rule: ; opacity: 1;">y</tspan></text>
 </g>
<g style="stroke: none; stroke-width: 1; stroke-dasharray: none; stroke-linecap: butt; stroke-linejoin: miter; stroke-miterlimit: 10; fill: none; fill-rule: nonzero; opacity: 1;" transform="translate(10 10) scale(0.32 0.31)" >
  <path d="M 117.67 76.179 c -5.275 8.998 -11.843 17.266 -19.337 24.643 c -7.52 7.339 -16.165 13.747 -25.984 18.119 c -4.9 2.183 -10.081 3.836 -15.43 4.806 c -5.3 0.93 -10.93 1.42 -16.535 0.443 c -11.165 -1.871 -21.275 -8.129 -28.605 -16.723 C 4.439 98.893 -0.215 87.528 0.008 75.67 c 0.09 -5.895 1.39 -11.791 3.672 -17.216 c 2.28 -5.433 5.496 -10.386 9.228 -14.763 c 7.516 -8.769 16.879 -15.31 26.594 -20.523 c 9.76 -5.202 19.999 -9.109 30.355 -12.275 l 4.325 16.026 c -9.747 2.283 -19.297 5.239 -28.236 9.267 c -8.905 4.03 -17.261 9.171 -23.807 15.861 c -6.54 6.641 -11.043 15.016 -11.765 24.099 c -0.8 9.047 2.193 18.505 7.889 26.138 c 5.663 7.633 13.975 13.595 23.326 15.798 c 4.638 1.142 9.583 1.067 14.57 0.532 c 4.963 -0.563 9.878 -1.77 14.629 -3.518 c 9.516 -3.495 18.306 -9.104 26.146 -15.806 c 7.82 -6.738 14.882 -14.49 20.736 -23.111 z" style="stroke: none; stroke-width: 1; stroke-dasharray: none; stroke-linecap: butt; stroke-linejoin: miter; stroke-miterlimit: 10; fill: #f07911; fill-rule: nonzero; opacity: 1;" transform="" stroke-linecap="round" />
  <path d="M 116.01 65.803 s -36.522 48.973 -73.044 45.238 V 65.389 l 73.044 0.414 z" style="stroke: none; stroke-width: 1; stroke-dasharray: none; stroke-linecap: butt; stroke-linejoin: miter; stroke-miterlimit: 10; fill: #2877ad; fill-rule: nonzero; opacity: 1;" transform="" stroke-linecap="round" />
  <path d="M 42.966 137.391 s 53.123 -6.43 73.044 -45.238 v 45.653 l -73.044 -0.415 z" style="stroke: none; stroke-width: 1; stroke-dasharray: none; stroke-linecap: butt; stroke-linejoin: miter; stroke-miterlimit: 10; fill: #5fe0dc; fill-rule: nonzero; opacity: 1;" transform="" stroke-linecap="round" />
  <path d="M 46.884 0 l 38.49 12.935 l -20.84 34.854 z" style="stroke: none; stroke-width: 1; stroke-dasharray: none; stroke-linecap: butt; stroke-linejoin: miter; stroke-miterlimit: 10; fill: #f07911; fill-rule: nonzero; opacity: 1;" transform="" stroke-linecap="round" />
</g>
</svg>